<?xml version="1.0" encoding="UTF-8" standalone="no"?>
<!DOCTYPE svg PUBLIC "-//W3C//DTD SVG 1.1//EN"
 "http://www.w3.org/Graphics/SVG/1.1/DTD/svg11.dtd">
<!-- Generated by graphviz version 2.40.1 (20161225.0304)
 -->
<!-- Title: G Pages: 1 -->
<svg width="762pt" height="638pt"
 viewBox="0.00 0.00 762.00 638.00" xmlns="http://www.w3.org/2000/svg" xmlns:xlink="http://www.w3.org/1999/xlink">
<g id="graph0" class="graph" transform="scale(1 1) rotate(0) translate(4 634)">
<title>G</title>
<polygon fill="#ffffff" stroke="transparent" points="-4,4 -4,-634 758,-634 758,4 -4,4"/>
<g id="clust1" class="cluster">
<title>cluster_root</title>
<g id="a_clust1"><a xlink:title="eventq_index=0&#10;full_system=false&#10;sim_quantum=0&#10;time_sync_enable=false&#10;time_sync_period=100000000000&#10;time_sync_spin_threshold=100000000">
<path fill="#bab6ae" stroke="#000000" d="M20,-8C20,-8 734,-8 734,-8 740,-8 746,-14 746,-20 746,-20 746,-610 746,-610 746,-616 740,-622 734,-622 734,-622 20,-622 20,-622 14,-622 8,-616 8,-610 8,-610 8,-20 8,-20 8,-14 14,-8 20,-8"/>
<text text-anchor="middle" x="377" y="-606.8" font-family="Arial" font-size="14.00" fill="#000000">root </text>
<text text-anchor="middle" x="377" y="-591.8" font-family="Arial" font-size="14.00" fill="#000000">: Root</text>
</a>
</g>
</g>
<g id="clust2" class="cluster">
<title>cluster_system</title>
<g id="a_clust2"><a xlink:title="boot_osflags=a&#10;cache_line_size=64&#10;eventq_index=0&#10;exit_on_work_items=false&#10;init_param=0&#10;kernel=&#10;kernel_addr_check=true&#10;kernel_extras=&#10;&#10;oad_addr_mask=18446744073709551615&#10;&#10;oad_offset=0&#10;mem_mode=timing&#10;mem_ranges=0:536870911&#10;memories=system.mem_ctrls&#10;mmap_using_noreserve=false&#10;multi_thread=false&#10;&#10;um_work_ids=16&#10;&#13;eadfile=&#10;&#13;edirect_paths=system.redirect_paths0 system.redirect_paths1 system.redirect_paths2 system.redirect_paths3&#10;symbolfile=&#10;thermal_components=&#10;thermal_model=Null&#10;work_begin_ckpt_count=0&#10;work_begin_cpu_id_exit=&#45;1&#10;work_begin_exit_count=0&#10;work_cpus_ckpt_count=0&#10;work_end_ckpt_count=0&#10;work_end_exit_count=0&#10;work_item_id=&#45;1">
<path fill="#e4e7eb" stroke="#000000" d="M28,-16C28,-16 726,-16 726,-16 732,-16 738,-22 738,-28 738,-28 738,-564 738,-564 738,-570 732,-576 726,-576 726,-576 28,-576 28,-576 22,-576 16,-570 16,-564 16,-564 16,-28 16,-28 16,-22 22,-16 28,-16"/>
<text text-anchor="middle" x="377" y="-560.8" font-family="Arial" font-size="14.00" fill="#000000">system </text>
<text text-anchor="middle" x="377" y="-545.8" font-family="Arial" font-size="14.00" fill="#000000">: System</text>
</a>
</g>
</g>
<g id="clust3" class="cluster">
<title>cluster_system_membus</title>
<g id="a_clust3"><a xlink:title="clk_domain=system.clk_domain&#10;default_p_state=UNDEFINED&#10;eventq_index=0&#10;forward_latency=4&#10;frontend_latency=3&#10;max_outstanding_snoops=512&#10;max_routing_table_size=512&#10;p_state_clk_gate_bins=20&#10;p_state_clk_gate_max=1000000000000&#10;p_state_clk_gate_min=1000&#10;point_of_coherency=true&#10;point_of_unification=true&#10;power_model=&#10;&#13;esponse_latency=2&#10;snoop_filter=system.membus.snoop_filter&#10;snoop_response_latency=4&#10;system=system&#10;use_default_range=false&#10;width=16">
<path fill="#6f798c" stroke="#000000" d="M524,-354C524,-354 650,-354 650,-354 656,-354 662,-360 662,-366 662,-366 662,-433 662,-433 662,-439 656,-445 650,-445 650,-445 524,-445 524,-445 518,-445 512,-439 512,-433 512,-433 512,-366 512,-366 512,-360 518,-354 524,-354"/>
<text text-anchor="middle" x="587" y="-429.8" font-family="Arial" font-size="14.00" fill="#000000">membus </text>
<text text-anchor="middle" x="587" y="-414.8" font-family="Arial" font-size="14.00" fill="#000000">: SystemXBar</text>
</a>
</g>
</g>
<g id="clust12" class="cluster">
<title>cluster_system_mem_ctrls</title>
<g id="a_clust12"><a xlink:title="IDD0=0.043&#10;IDD02=0.003&#10;IDD2N=0.034&#10;IDD2N2=0.0&#10;IDD2P0=0.0&#10;IDD2P02=0.0&#10;IDD2P1=0.025&#10;IDD2P12=0.0&#10;IDD3N=0.038&#10;IDD3N2=0.003&#10;IDD3P0=0.0&#10;IDD3P02=0.0&#10;IDD3P1=0.032&#10;IDD3P12=0.0&#10;IDD4R=0.11&#10;IDD4R2=0.0&#10;IDD4W=0.103&#10;IDD4W2=0.0&#10;IDD5=0.25&#10;IDD52=0.0&#10;IDD6=0.03&#10;IDD62=0.0&#10;VDD=1.2&#10;VDD2=2.5&#10;activation_limit=4&#10;addr_mapping=RoRaBaCoCh&#10;bank_groups_per_rank=4&#10;banks_per_rank=16&#10;burst_length=8&#10;clk_domain=system.clk_domain&#10;conf_table_reported=true&#10;default_p_state=UNDEFINED&#10;device_bus_width=4&#10;device_rowbuffer_size=512&#10;device_size=1073741824&#10;devices_per_rank=16&#10;dll=true&#10;enable_dram_powerdown=false&#10;eventq_index=0&#10;in_addr_map=true&#10;kvm_map=true&#10;max_accesses_per_row=16&#10;mem_sched_policy=frfcfs&#10;min_writes_per_switch=16&#10;&#10;ull=false&#10;p_state_clk_gate_bins=20&#10;p_state_clk_gate_max=1000000000000&#10;p_state_clk_gate_min=1000&#10;page_policy=open_adaptive&#10;power_model=&#10;qos_masters= &#160;&#160;&#160;&#160;&#160;&#160;&#160;&#160;&#160;&#160;&#160;&#160;&#160;&#160;&#10;qos_policy=Null&#10;qos_priorities=1&#10;qos_priority_escalation=false&#10;qos_q_policy=fifo&#10;qos_syncro_scheduler=false&#10;qos_turnaround_policy=Null&#10;&#13;ange=0:536870911&#10;&#13;anks_per_channel=2&#10;&#13;ead_buffer_size=64&#10;static_backend_latency=10000&#10;static_frontend_latency=10000&#10;tBURST=3332&#10;tCCD_L=5000&#10;tCCD_L_WR=5000&#10;tCK=833&#10;tCL=14160&#10;tCS=1666&#10;tRAS=32000&#10;tRCD=14160&#10;tREFI=7800000&#10;tRFC=350000&#10;tRP=14160&#10;tRRD=3332&#10;tRRD_L=4900&#10;tRTP=7500&#10;tRTW=1666&#10;tWR=15000&#10;tWTR=5000&#10;tXAW=13328&#10;tXP=6000&#10;tXPDLL=0&#10;tXS=340000&#10;tXSDLL=0&#10;write_buffer_size=128&#10;write_high_thresh_perc=85&#10;write_low_thresh_perc=50">
<path fill="#5e5958" stroke="#000000" d="M36,-163C36,-163 158,-163 158,-163 164,-163 170,-169 170,-175 170,-175 170,-242 170,-242 170,-248 164,-254 158,-254 158,-254 36,-254 36,-254 30,-254 24,-248 24,-242 24,-242 24,-175 24,-175 24,-169 30,-163 36,-163"/>
<text text-anchor="middle" x="97" y="-238.8" font-family="Arial" font-size="14.00" fill="#000000">mem_ctrls </text>
<text text-anchor="middle" x="97" y="-223.8" font-family="Arial" font-size="14.00" fill="#000000">: DDR4_2400_16x4</text>
</a>
</g>
</g>
<g id="clust15" class="cluster">
<title>cluster_system_cpu</title>
<g id="a_clust15"><a xlink:title="branchPred=system.cpu.branchPred&#10;checker=Null&#10;clk_domain=system.cpu_clk_domain&#10;cpu_id=0&#10;decodeCycleInput=true&#10;decodeInputBufferSize=3&#10;decodeInputWidth=2&#10;decodeToExecuteForwardDelay=1&#10;default_p_state=UNDEFINED&#10;do_checkpoint_insts=true&#10;do_quiesce=true&#10;do_statistics_insts=true&#10;dtb=system.cpu.dtb&#10;enableIdling=true&#10;eventq_index=0&#10;executeAllowEarlyMemoryIssue=true&#10;executeBranchDelay=1&#10;executeCommitLimit=2&#10;executeCycleInput=true&#10;executeFuncUnits=system.cpu.executeFuncUnits&#10;executeInputBufferSize=7&#10;executeInputWidth=2&#10;executeIssueLimit=2&#10;executeLSQMaxStoreBufferStoresPerCycle=2&#10;executeLSQRequestsQueueSize=1&#10;executeLSQStoreBufferSize=5&#10;executeLSQTransfersQueueSize=2&#10;executeMaxAccessesInMemory=2&#10;executeMemoryCommitLimit=1&#10;executeMemoryIssueLimit=1&#10;executeMemoryWidth=0&#10;executeSetTraceTimeOnCommit=true&#10;executeSetTraceTimeOnIssue=false&#10;fetch1FetchLimit=1&#10;fetch1LineSnapWidth=0&#10;fetch1LineWidth=0&#10;fetch1ToFetch2BackwardDelay=1&#10;fetch1ToFetch2ForwardDelay=1&#10;fetch2CycleInput=true&#10;fetch2InputBufferSize=2&#10;fetch2ToDecodeForwardDelay=1&#10;function_trace=false&#10;function_trace_start=0&#10;interrupts=system.cpu.interrupts&#10;isa=system.cpu.isa&#10;itb=system.cpu.itb&#10;max_insts_all_threads=0&#10;max_insts_any_thread=0&#10;&#10;umThreads=1&#10;p_state_clk_gate_bins=20&#10;p_state_clk_gate_max=1000000000000&#10;p_state_clk_gate_min=1000&#10;power_gating_on_idle=false&#10;power_model=&#10;profile=0&#10;progress_interval=0&#10;pwr_gating_latency=300&#10;simpoint_start_insts=&#10;socket_id=0&#10;switched_out=false&#10;syscallRetryLatency=10000&#10;system=system&#10;threadPolicy=RoundRobin&#10;tracer=system.cpu.tracer&#10;wait_for_remote_gdb=false&#10;workload=system.cpu.workload">
<path fill="#bbc6d9" stroke="#000000" d="M190,-24C190,-24 696,-24 696,-24 702,-24 708,-30 708,-36 708,-36 708,-334 708,-334 708,-340 702,-346 696,-346 696,-346 190,-346 190,-346 184,-346 178,-340 178,-334 178,-334 178,-36 178,-36 178,-30 184,-24 190,-24"/>
<text text-anchor="middle" x="443" y="-330.8" font-family="Arial" font-size="14.00" fill="#000000">cpu </text>
<text text-anchor="middle" x="443" y="-315.8" font-family="Arial" font-size="14.00" fill="#000000">: MinorCPU</text>
</a>
</g>
</g>
<g id="clust17" class="cluster">
<title>cluster_system_cpu_dtb</title>
<g id="a_clust17"><a xlink:title="eventq_index=0&#10;is_stage2=false&#10;size=64&#10;sys=system&#10;walker=system.cpu.dtb.walker">
<path fill="#bab6ae" stroke="#000000" d="M567,-155C567,-155 688,-155 688,-155 694,-155 700,-161 700,-167 700,-167 700,-288 700,-288 700,-294 694,-300 688,-300 688,-300 567,-300 567,-300 561,-300 555,-294 555,-288 555,-288 555,-167 555,-167 555,-161 561,-155 567,-155"/>
<text text-anchor="middle" x="627.5" y="-284.8" font-family="Arial" font-size="14.00" fill="#000000">dtb </text>
<text text-anchor="middle" x="627.5" y="-269.8" font-family="Arial" font-size="14.00" fill="#000000">: ArmDTB</text>
</a>
</g>
</g>
<g id="clust18" class="cluster">
<title>cluster_system_cpu_dtb_walker</title>
<g id="a_clust18"><a xlink:title="clk_domain=system.cpu_clk_domain&#10;default_p_state=UNDEFINED&#10;eventq_index=0&#10;is_stage2=false&#10;&#10;um_squash_per_cycle=2&#10;p_state_clk_gate_bins=20&#10;p_state_clk_gate_max=1000000000000&#10;p_state_clk_gate_min=1000&#10;power_model=&#10;sys=system">
<path fill="#9f9c95" stroke="#000000" d="M575,-163C575,-163 680,-163 680,-163 686,-163 692,-169 692,-175 692,-175 692,-242 692,-242 692,-248 686,-254 680,-254 680,-254 575,-254 575,-254 569,-254 563,-248 563,-242 563,-242 563,-175 563,-175 563,-169 569,-163 575,-163"/>
<text text-anchor="middle" x="627.5" y="-238.8" font-family="Arial" font-size="14.00" fill="#000000">walker </text>
<text text-anchor="middle" x="627.5" y="-223.8" font-family="Arial" font-size="14.00" fill="#000000">: ArmTableWalker</text>
</a>
</g>
</g>
<g id="clust105" class="cluster">
<title>cluster_system_cpu_icache</title>
<g id="a_clust105"><a xlink:title="addr_ranges=0:18446744073709551615&#10;assoc=2&#10;clk_domain=system.cpu_clk_domain&#10;clusivity=mostly_incl&#10;compressor=Null&#10;data_latency=2&#10;default_p_state=UNDEFINED&#10;demand_mshr_reserve=1&#10;eventq_index=0&#10;is_read_only=true&#10;max_miss_count=0&#10;mshrs=4&#10;p_state_clk_gate_bins=20&#10;p_state_clk_gate_max=1000000000000&#10;p_state_clk_gate_min=1000&#10;power_model=&#10;prefetch_on_access=false&#10;prefetcher=Null&#10;&#13;eplacement_policy=system.cpu.icache.replacement_policy&#10;&#13;esponse_latency=2&#10;sequential_access=false&#10;size=32768&#10;system=system&#10;tag_latency=2&#10;tags=system.cpu.icache.tags&#10;tgts_per_mshr=20&#10;warmup_percentage=0&#10;write_allocator=Null&#10;write_buffers=8&#10;writeback_clean=true">
<path fill="#bab6ae" stroke="#000000" d="M257,-32C257,-32 427,-32 427,-32 433,-32 439,-38 439,-44 439,-44 439,-111 439,-111 439,-117 433,-123 427,-123 427,-123 257,-123 257,-123 251,-123 245,-117 245,-111 245,-111 245,-44 245,-44 245,-38 251,-32 257,-32"/>
<text text-anchor="middle" x="342" y="-107.8" font-family="Arial" font-size="14.00" fill="#000000">icache </text>
<text text-anchor="middle" x="342" y="-92.8" font-family="Arial" font-size="14.00" fill="#000000">: L1_ICache</text>
</a>
</g>
</g>
<g id="clust109" class="cluster">
<title>cluster_system_cpu_dcache</title>
<g id="a_clust109"><a xlink:title="addr_ranges=0:18446744073709551615&#10;assoc=2&#10;clk_domain=system.cpu_clk_domain&#10;clusivity=mostly_incl&#10;compressor=Null&#10;data_latency=2&#10;default_p_state=UNDEFINED&#10;demand_mshr_reserve=1&#10;eventq_index=0&#10;is_read_only=false&#10;max_miss_count=0&#10;mshrs=4&#10;p_state_clk_gate_bins=20&#10;p_state_clk_gate_max=1000000000000&#10;p_state_clk_gate_min=1000&#10;power_model=&#10;prefetch_on_access=false&#10;prefetcher=Null&#10;&#13;eplacement_policy=system.cpu.dcache.replacement_policy&#10;&#13;esponse_latency=2&#10;sequential_access=false&#10;size=65536&#10;system=system&#10;tag_latency=2&#10;tags=system.cpu.dcache.tags&#10;tgts_per_mshr=20&#10;warmup_percentage=0&#10;write_allocator=Null&#10;write_buffers=8&#10;writeback_clean=false">
<path fill="#bab6ae" stroke="#000000" d="M488,-32C488,-32 658,-32 658,-32 664,-32 670,-38 670,-44 670,-44 670,-111 670,-111 670,-117 664,-123 658,-123 658,-123 488,-123 488,-123 482,-123 476,-117 476,-111 476,-111 476,-44 476,-44 476,-38 482,-32 488,-32"/>
<text text-anchor="middle" x="573" y="-107.8" font-family="Arial" font-size="14.00" fill="#000000">dcache </text>
<text text-anchor="middle" x="573" y="-92.8" font-family="Arial" font-size="14.00" fill="#000000">: L1_DCache</text>
</a>
</g>
</g>
<g id="clust117" class="cluster">
<title>cluster_system_cpu_itb</title>
<g id="a_clust117"><a xlink:title="eventq_index=0&#10;is_stage2=false&#10;size=64&#10;sys=system&#10;walker=system.cpu.itb.walker">
<path fill="#bab6ae" stroke="#000000" d="M414,-155C414,-155 535,-155 535,-155 541,-155 547,-161 547,-167 547,-167 547,-288 547,-288 547,-294 541,-300 535,-300 535,-300 414,-300 414,-300 408,-300 402,-294 402,-288 402,-288 402,-167 402,-167 402,-161 408,-155 414,-155"/>
<text text-anchor="middle" x="474.5" y="-284.8" font-family="Arial" font-size="14.00" fill="#000000">itb </text>
<text text-anchor="middle" x="474.5" y="-269.8" font-family="Arial" font-size="14.00" fill="#000000">: ArmITB</text>
</a>
</g>
</g>
<g id="clust118" class="cluster">
<title>cluster_system_cpu_itb_walker</title>
<g id="a_clust118"><a xlink:title="clk_domain=system.cpu_clk_domain&#10;default_p_state=UNDEFINED&#10;eventq_index=0&#10;is_stage2=false&#10;&#10;um_squash_per_cycle=2&#10;p_state_clk_gate_bins=20&#10;p_state_clk_gate_max=1000000000000&#10;p_state_clk_gate_min=1000&#10;power_model=&#10;sys=system">
<path fill="#9f9c95" stroke="#000000" d="M422,-163C422,-163 527,-163 527,-163 533,-163 539,-169 539,-175 539,-175 539,-242 539,-242 539,-248 533,-254 527,-254 527,-254 422,-254 422,-254 416,-254 410,-248 410,-242 410,-242 410,-175 410,-175 410,-169 416,-163 422,-163"/>
<text text-anchor="middle" x="474.5" y="-238.8" font-family="Arial" font-size="14.00" fill="#000000">walker </text>
<text text-anchor="middle" x="474.5" y="-223.8" font-family="Arial" font-size="14.00" fill="#000000">: ArmTableWalker</text>
</a>
</g>
</g>
<!-- system_system_port -->
<g id="node1" class="node">
<title>system_system_port</title>
<path fill="#b6b8bc" stroke="#000000" d="M591,-493.5C591,-493.5 663,-493.5 663,-493.5 669,-493.5 675,-499.5 675,-505.5 675,-505.5 675,-517.5 675,-517.5 675,-523.5 669,-529.5 663,-529.5 663,-529.5 591,-529.5 591,-529.5 585,-529.5 579,-523.5 579,-517.5 579,-517.5 579,-505.5 579,-505.5 579,-499.5 585,-493.5 591,-493.5"/>
<text text-anchor="middle" x="627" y="-507.8" font-family="Arial" font-size="14.00" fill="#000000">system_port</text>
</g>
<!-- system_membus_slave -->
<g id="node3" class="node">
<title>system_membus_slave</title>
<path fill="#586070" stroke="#000000" d="M612,-362.5C612,-362.5 642,-362.5 642,-362.5 648,-362.5 654,-368.5 654,-374.5 654,-374.5 654,-386.5 654,-386.5 654,-392.5 648,-398.5 642,-398.5 642,-398.5 612,-398.5 612,-398.5 606,-398.5 600,-392.5 600,-386.5 600,-386.5 600,-374.5 600,-374.5 600,-368.5 606,-362.5 612,-362.5"/>
<text text-anchor="middle" x="627" y="-376.8" font-family="Arial" font-size="14.00" fill="#000000">slave</text>
</g>
<!-- system_system_port&#45;&gt;system_membus_slave -->
<g id="edge1" class="edge">
<title>system_system_port&#45;&gt;system_membus_slave</title>
<path fill="none" stroke="#000000" d="M627,-493.285C627,-471.3856 627,-434.3861 627,-408.7663"/>
<polygon fill="#000000" stroke="#000000" points="630.5001,-408.5603 627,-398.5603 623.5001,-408.5603 630.5001,-408.5603"/>
</g>
<!-- system_membus_master -->
<g id="node2" class="node">
<title>system_membus_master</title>
<path fill="#586070" stroke="#000000" d="M532.5,-362.5C532.5,-362.5 569.5,-362.5 569.5,-362.5 575.5,-362.5 581.5,-368.5 581.5,-374.5 581.5,-374.5 581.5,-386.5 581.5,-386.5 581.5,-392.5 575.5,-398.5 569.5,-398.5 569.5,-398.5 532.5,-398.5 532.5,-398.5 526.5,-398.5 520.5,-392.5 520.5,-386.5 520.5,-386.5 520.5,-374.5 520.5,-374.5 520.5,-368.5 526.5,-362.5 532.5,-362.5"/>
<text text-anchor="middle" x="551" y="-376.8" font-family="Arial" font-size="14.00" fill="#000000">master</text>
</g>
<!-- system_mem_ctrls_port -->
<g id="node4" class="node">
<title>system_mem_ctrls_port</title>
<path fill="#4b4746" stroke="#000000" d="M120,-171.5C120,-171.5 150,-171.5 150,-171.5 156,-171.5 162,-177.5 162,-183.5 162,-183.5 162,-195.5 162,-195.5 162,-201.5 156,-207.5 150,-207.5 150,-207.5 120,-207.5 120,-207.5 114,-207.5 108,-201.5 108,-195.5 108,-195.5 108,-183.5 108,-183.5 108,-177.5 114,-171.5 120,-171.5"/>
<text text-anchor="middle" x="135" y="-185.8" font-family="Arial" font-size="14.00" fill="#000000">port</text>
</g>
<!-- system_membus_master&#45;&gt;system_mem_ctrls_port -->
<g id="edge2" class="edge">
<title>system_membus_master&#45;&gt;system_mem_ctrls_port</title>
<path fill="none" stroke="#000000" d="M520.4853,-379.708C435.4113,-377.2251 200.0986,-368.3832 174,-346 137.113,-314.3642 132.3154,-253.6983 133.0515,-217.9012"/>
<polygon fill="#000000" stroke="#000000" points="136.5585,-217.7717 133.4282,-207.6499 129.5632,-217.5146 136.5585,-217.7717"/>
</g>
<!-- system_cpu_dtb_walker_port -->
<g id="node7" class="node">
<title>system_cpu_dtb_walker_port</title>
<path fill="#7f7c77" stroke="#000000" d="M612,-171.5C612,-171.5 642,-171.5 642,-171.5 648,-171.5 654,-177.5 654,-183.5 654,-183.5 654,-195.5 654,-195.5 654,-201.5 648,-207.5 642,-207.5 642,-207.5 612,-207.5 612,-207.5 606,-207.5 600,-201.5 600,-195.5 600,-195.5 600,-183.5 600,-183.5 600,-177.5 606,-171.5 612,-171.5"/>
<text text-anchor="middle" x="627" y="-185.8" font-family="Arial" font-size="14.00" fill="#000000">port</text>
</g>
<!-- system_membus_slave&#45;&gt;system_cpu_dtb_walker_port -->
<g id="edge6" class="edge">
<title>system_membus_slave&#45;&gt;system_cpu_dtb_walker_port</title>
<path fill="none" stroke="#000000" d="M627,-352.09C627,-312.3133 627,-241.1585 627,-207.7584"/>
<polygon fill="#000000" stroke="#000000" points="623.5001,-352.1861 627,-362.1861 630.5001,-352.1862 623.5001,-352.1861"/>
</g>
<!-- system_cpu_icache_mem_side -->
<g id="node8" class="node">
<title>system_cpu_icache_mem_side</title>
<path fill="#94918b" stroke="#000000" d="M359,-40.5C359,-40.5 419,-40.5 419,-40.5 425,-40.5 431,-46.5 431,-52.5 431,-52.5 431,-64.5 431,-64.5 431,-70.5 425,-76.5 419,-76.5 419,-76.5 359,-76.5 359,-76.5 353,-76.5 347,-70.5 347,-64.5 347,-64.5 347,-52.5 347,-52.5 347,-46.5 353,-40.5 359,-40.5"/>
<text text-anchor="middle" x="389" y="-54.8" font-family="Arial" font-size="14.00" fill="#000000">mem_side</text>
</g>
<!-- system_membus_slave&#45;&gt;system_cpu_icache_mem_side -->
<g id="edge3" class="edge">
<title>system_membus_slave&#45;&gt;system_cpu_icache_mem_side</title>
<path fill="none" stroke="#000000" d="M663.492,-370.9252C676.0161,-365.7021 688.7058,-357.8023 696,-346 707.1572,-327.9473 709.9048,-171.0324 696,-155 663.0544,-117.0134 518.2891,-142.6396 472,-123 446.6325,-112.2371 422.3137,-91.7305 406.6323,-76.7193"/>
<polygon fill="#000000" stroke="#000000" points="662.2063,-367.6689 654.0392,-374.4179 664.6324,-374.2351 662.2063,-367.6689"/>
</g>
<!-- system_cpu_dcache_mem_side -->
<g id="node10" class="node">
<title>system_cpu_dcache_mem_side</title>
<path fill="#94918b" stroke="#000000" d="M590,-40.5C590,-40.5 650,-40.5 650,-40.5 656,-40.5 662,-46.5 662,-52.5 662,-52.5 662,-64.5 662,-64.5 662,-70.5 656,-76.5 650,-76.5 650,-76.5 590,-76.5 590,-76.5 584,-76.5 578,-70.5 578,-64.5 578,-64.5 578,-52.5 578,-52.5 578,-46.5 584,-40.5 590,-40.5"/>
<text text-anchor="middle" x="620" y="-54.8" font-family="Arial" font-size="14.00" fill="#000000">mem_side</text>
</g>
<!-- system_membus_slave&#45;&gt;system_cpu_dcache_mem_side -->
<g id="edge4" class="edge">
<title>system_membus_slave&#45;&gt;system_cpu_dcache_mem_side</title>
<path fill="none" stroke="#000000" d="M663.8713,-375.6474C682.1857,-371.1691 702.7538,-362.5579 714,-346 761.6957,-275.7772 745.9703,-233.6386 714,-155 700.5233,-121.851 669.5794,-93.8563 646.8607,-76.6955"/>
<polygon fill="#000000" stroke="#000000" points="663.0615,-372.2412 654.0019,-377.7344 664.5097,-379.0897 663.0615,-372.2412"/>
</g>
<!-- system_cpu_itb_walker_port -->
<g id="node12" class="node">
<title>system_cpu_itb_walker_port</title>
<path fill="#7f7c77" stroke="#000000" d="M489,-171.5C489,-171.5 519,-171.5 519,-171.5 525,-171.5 531,-177.5 531,-183.5 531,-183.5 531,-195.5 531,-195.5 531,-201.5 525,-207.5 519,-207.5 519,-207.5 489,-207.5 489,-207.5 483,-207.5 477,-201.5 477,-195.5 477,-195.5 477,-183.5 477,-183.5 477,-177.5 483,-171.5 489,-171.5"/>
<text text-anchor="middle" x="504" y="-185.8" font-family="Arial" font-size="14.00" fill="#000000">port</text>
</g>
<!-- system_membus_slave&#45;&gt;system_cpu_itb_walker_port -->
<g id="edge5" class="edge">
<title>system_membus_slave&#45;&gt;system_cpu_itb_walker_port</title>
<path fill="none" stroke="#000000" d="M596.3556,-356.7855C594.5818,-355.7801 592.7907,-354.8425 591,-354 577.7349,-347.7589 569.8367,-355.8732 559,-346 518.4455,-309.0511 507.7915,-240.4314 504.9945,-207.7363"/>
<polygon fill="#000000" stroke="#000000" points="594.6742,-359.8634 604.9966,-362.2509 598.4161,-353.9474 594.6742,-359.8634"/>
</g>
<!-- system_cpu_icache_port -->
<g id="node5" class="node">
<title>system_cpu_icache_port</title>
<path fill="#959ead" stroke="#000000" d="M198,-171.5C198,-171.5 266,-171.5 266,-171.5 272,-171.5 278,-177.5 278,-183.5 278,-183.5 278,-195.5 278,-195.5 278,-201.5 272,-207.5 266,-207.5 266,-207.5 198,-207.5 198,-207.5 192,-207.5 186,-201.5 186,-195.5 186,-195.5 186,-183.5 186,-183.5 186,-177.5 192,-171.5 198,-171.5"/>
<text text-anchor="middle" x="232" y="-185.8" font-family="Arial" font-size="14.00" fill="#000000">icache_port</text>
</g>
<!-- system_cpu_icache_cpu_side -->
<g id="node9" class="node">
<title>system_cpu_icache_cpu_side</title>
<path fill="#94918b" stroke="#000000" d="M265,-40.5C265,-40.5 317,-40.5 317,-40.5 323,-40.5 329,-46.5 329,-52.5 329,-52.5 329,-64.5 329,-64.5 329,-70.5 323,-76.5 317,-76.5 317,-76.5 265,-76.5 265,-76.5 259,-76.5 253,-70.5 253,-64.5 253,-64.5 253,-52.5 253,-52.5 253,-46.5 259,-40.5 265,-40.5"/>
<text text-anchor="middle" x="291" y="-54.8" font-family="Arial" font-size="14.00" fill="#000000">cpu_side</text>
</g>
<!-- system_cpu_icache_port&#45;&gt;system_cpu_icache_cpu_side -->
<g id="edge7" class="edge">
<title>system_cpu_icache_port&#45;&gt;system_cpu_icache_cpu_side</title>
<path fill="none" stroke="#000000" d="M240.2037,-171.285C250.1989,-149.0923 267.1783,-111.3923 278.7302,-85.7431"/>
<polygon fill="#000000" stroke="#000000" points="281.9507,-87.1155 282.866,-76.5603 275.5681,-84.2409 281.9507,-87.1155"/>
</g>
<!-- system_cpu_dcache_port -->
<g id="node6" class="node">
<title>system_cpu_dcache_port</title>
<path fill="#959ead" stroke="#000000" d="M308,-171.5C308,-171.5 382,-171.5 382,-171.5 388,-171.5 394,-177.5 394,-183.5 394,-183.5 394,-195.5 394,-195.5 394,-201.5 388,-207.5 382,-207.5 382,-207.5 308,-207.5 308,-207.5 302,-207.5 296,-201.5 296,-195.5 296,-195.5 296,-183.5 296,-183.5 296,-177.5 302,-171.5 308,-171.5"/>
<text text-anchor="middle" x="345" y="-185.8" font-family="Arial" font-size="14.00" fill="#000000">dcache_port</text>
</g>
<!-- system_cpu_dcache_cpu_side -->
<g id="node11" class="node">
<title>system_cpu_dcache_cpu_side</title>
<path fill="#94918b" stroke="#000000" d="M496,-40.5C496,-40.5 548,-40.5 548,-40.5 554,-40.5 560,-46.5 560,-52.5 560,-52.5 560,-64.5 560,-64.5 560,-70.5 554,-76.5 548,-76.5 548,-76.5 496,-76.5 496,-76.5 490,-76.5 484,-70.5 484,-64.5 484,-64.5 484,-52.5 484,-52.5 484,-46.5 490,-40.5 496,-40.5"/>
<text text-anchor="middle" x="522" y="-54.8" font-family="Arial" font-size="14.00" fill="#000000">cpu_side</text>
</g>
<!-- system_cpu_dcache_port&#45;&gt;system_cpu_dcache_cpu_side -->
<g id="edge8" class="edge">
<title>system_cpu_dcache_port&#45;&gt;system_cpu_dcache_cpu_side</title>
<path fill="none" stroke="#000000" d="M373.339,-171.2273C393.1612,-158.2157 420.0837,-140.0781 443,-123 460.01,-110.3235 478.4022,-95.3845 493.157,-83.0775"/>
<polygon fill="#000000" stroke="#000000" points="495.5359,-85.6504 500.948,-76.5422 491.0372,-80.2874 495.5359,-85.6504"/>
</g>
</g>
</svg>
