<?xml version="1.0" encoding="UTF-8" standalone="no"?>
<!DOCTYPE svg PUBLIC "-//W3C//DTD SVG 1.1//EN"
 "http://www.w3.org/Graphics/SVG/1.1/DTD/svg11.dtd">
<!-- Generated by graphviz version 2.40.1 (20161225.0304)
 -->
<!-- Title: G Pages: 1 -->
<svg width="754pt" height="638pt"
 viewBox="0.00 0.00 754.00 638.00" xmlns="http://www.w3.org/2000/svg" xmlns:xlink="http://www.w3.org/1999/xlink">
<g id="graph0" class="graph" transform="scale(1 1) rotate(0) translate(4 634)">
<title>G</title>
<polygon fill="#ffffff" stroke="transparent" points="-4,4 -4,-634 750,-634 750,4 -4,4"/>
<g id="clust1" class="cluster">
<title>cluster_root</title>
<g id="a_clust1"><a xlink:title="eventq_index=0&#10;full_system=false&#10;sim_quantum=0&#10;time_sync_enable=false&#10;time_sync_period=100000000000&#10;time_sync_spin_threshold=100000000">
<path fill="#bab6ae" stroke="#000000" d="M20,-8C20,-8 726,-8 726,-8 732,-8 738,-14 738,-20 738,-20 738,-610 738,-610 738,-616 732,-622 726,-622 726,-622 20,-622 20,-622 14,-622 8,-616 8,-610 8,-610 8,-20 8,-20 8,-14 14,-8 20,-8"/>
<text text-anchor="middle" x="373" y="-606.8" font-family="Arial" font-size="14.00" fill="#000000">root </text>
<text text-anchor="middle" x="373" y="-591.8" font-family="Arial" font-size="14.00" fill="#000000">: Root</text>
</a>
</g>
</g>
<g id="clust2" class="cluster">
<title>cluster_system</title>
<g id="a_clust2"><a xlink:title="boot_osflags=a&#10;cache_line_size=64&#10;eventq_index=0&#10;exit_on_work_items=false&#10;init_param=0&#10;kernel=&#10;kernel_addr_check=true&#10;kernel_extras=&#10;&#10;oad_addr_mask=18446744073709551615&#10;&#10;oad_offset=0&#10;mem_mode=timing&#10;mem_ranges=0:536870911&#10;memories=system.mem_ctrls&#10;mmap_using_noreserve=false&#10;multi_thread=false&#10;&#10;um_work_ids=16&#10;&#13;eadfile=&#10;&#13;edirect_paths=system.redirect_paths0 system.redirect_paths1 system.redirect_paths2 system.redirect_paths3&#10;symbolfile=&#10;thermal_components=&#10;thermal_model=Null&#10;work_begin_ckpt_count=0&#10;work_begin_cpu_id_exit=&#45;1&#10;work_begin_exit_count=0&#10;work_cpus_ckpt_count=0&#10;work_end_ckpt_count=0&#10;work_end_exit_count=0&#10;work_item_id=&#45;1">
<path fill="#e4e7eb" stroke="#000000" d="M28,-16C28,-16 718,-16 718,-16 724,-16 730,-22 730,-28 730,-28 730,-564 730,-564 730,-570 724,-576 718,-576 718,-576 28,-576 28,-576 22,-576 16,-570 16,-564 16,-564 16,-28 16,-28 16,-22 22,-16 28,-16"/>
<text text-anchor="middle" x="373" y="-560.8" font-family="Arial" font-size="14.00" fill="#000000">system </text>
<text text-anchor="middle" x="373" y="-545.8" font-family="Arial" font-size="14.00" fill="#000000">: System</text>
</a>
</g>
</g>
<g id="clust3" class="cluster">
<title>cluster_system_membus</title>
<g id="a_clust3"><a xlink:title="clk_domain=system.clk_domain&#10;default_p_state=UNDEFINED&#10;eventq_index=0&#10;forward_latency=4&#10;frontend_latency=3&#10;max_outstanding_snoops=512&#10;max_routing_table_size=512&#10;p_state_clk_gate_bins=20&#10;p_state_clk_gate_max=1000000000000&#10;p_state_clk_gate_min=1000&#10;point_of_coherency=true&#10;point_of_unification=true&#10;power_model=&#10;&#13;esponse_latency=2&#10;snoop_filter=system.membus.snoop_filter&#10;snoop_response_latency=4&#10;system=system&#10;use_default_range=false&#10;width=16">
<path fill="#6f798c" stroke="#000000" d="M383,-354C383,-354 509,-354 509,-354 515,-354 521,-360 521,-366 521,-366 521,-433 521,-433 521,-439 515,-445 509,-445 509,-445 383,-445 383,-445 377,-445 371,-439 371,-433 371,-433 371,-366 371,-366 371,-360 377,-354 383,-354"/>
<text text-anchor="middle" x="446" y="-429.8" font-family="Arial" font-size="14.00" fill="#000000">membus </text>
<text text-anchor="middle" x="446" y="-414.8" font-family="Arial" font-size="14.00" fill="#000000">: SystemXBar</text>
</a>
</g>
</g>
<g id="clust12" class="cluster">
<title>cluster_system_mem_ctrls</title>
<g id="a_clust12"><a xlink:title="IDD0=0.043&#10;IDD02=0.003&#10;IDD2N=0.034&#10;IDD2N2=0.0&#10;IDD2P0=0.0&#10;IDD2P02=0.0&#10;IDD2P1=0.025&#10;IDD2P12=0.0&#10;IDD3N=0.038&#10;IDD3N2=0.003&#10;IDD3P0=0.0&#10;IDD3P02=0.0&#10;IDD3P1=0.032&#10;IDD3P12=0.0&#10;IDD4R=0.11&#10;IDD4R2=0.0&#10;IDD4W=0.103&#10;IDD4W2=0.0&#10;IDD5=0.25&#10;IDD52=0.0&#10;IDD6=0.03&#10;IDD62=0.0&#10;VDD=1.2&#10;VDD2=2.5&#10;activation_limit=4&#10;addr_mapping=RoRaBaCoCh&#10;bank_groups_per_rank=4&#10;banks_per_rank=16&#10;burst_length=8&#10;clk_domain=system.clk_domain&#10;conf_table_reported=true&#10;default_p_state=UNDEFINED&#10;device_bus_width=4&#10;device_rowbuffer_size=512&#10;device_size=1073741824&#10;devices_per_rank=16&#10;dll=true&#10;enable_dram_powerdown=false&#10;eventq_index=0&#10;in_addr_map=true&#10;kvm_map=true&#10;max_accesses_per_row=16&#10;mem_sched_policy=frfcfs&#10;min_writes_per_switch=16&#10;&#10;ull=false&#10;p_state_clk_gate_bins=20&#10;p_state_clk_gate_max=1000000000000&#10;p_state_clk_gate_min=1000&#10;page_policy=open_adaptive&#10;power_model=&#10;qos_masters= &#160;&#160;&#160;&#160;&#160;&#160;&#160;&#160;&#160;&#160;&#160;&#160;&#160;&#160;&#10;qos_policy=Null&#10;qos_priorities=1&#10;qos_priority_escalation=false&#10;qos_q_policy=fifo&#10;qos_syncro_scheduler=false&#10;qos_turnaround_policy=Null&#10;&#13;ange=0:536870911&#10;&#13;anks_per_channel=2&#10;&#13;ead_buffer_size=64&#10;static_backend_latency=10000&#10;static_frontend_latency=10000&#10;tBURST=3332&#10;tCCD_L=5000&#10;tCCD_L_WR=5000&#10;tCK=833&#10;tCL=14160&#10;tCS=1666&#10;tRAS=32000&#10;tRCD=14160&#10;tREFI=7800000&#10;tRFC=350000&#10;tRP=14160&#10;tRRD=3332&#10;tRRD_L=4900&#10;tRTP=7500&#10;tRTW=1666&#10;tWR=15000&#10;tWTR=5000&#10;tXAW=13328&#10;tXP=6000&#10;tXPDLL=0&#10;tXS=340000&#10;tXSDLL=0&#10;write_buffer_size=128&#10;write_high_thresh_perc=85&#10;write_low_thresh_perc=50">
<path fill="#5e5958" stroke="#000000" d="M36,-163C36,-163 158,-163 158,-163 164,-163 170,-169 170,-175 170,-175 170,-242 170,-242 170,-248 164,-254 158,-254 158,-254 36,-254 36,-254 30,-254 24,-248 24,-242 24,-242 24,-175 24,-175 24,-169 30,-163 36,-163"/>
<text text-anchor="middle" x="97" y="-238.8" font-family="Arial" font-size="14.00" fill="#000000">mem_ctrls </text>
<text text-anchor="middle" x="97" y="-223.8" font-family="Arial" font-size="14.00" fill="#000000">: DDR4_2400_16x4</text>
</a>
</g>
</g>
<g id="clust15" class="cluster">
<title>cluster_system_cpu</title>
<g id="a_clust15"><a xlink:title="branchPred=Null&#10;checker=Null&#10;clk_domain=system.cpu_clk_domain&#10;cpu_id=0&#10;default_p_state=UNDEFINED&#10;do_checkpoint_insts=true&#10;do_quiesce=true&#10;do_statistics_insts=true&#10;dtb=system.cpu.dtb&#10;eventq_index=0&#10;function_trace=false&#10;function_trace_start=0&#10;interrupts=system.cpu.interrupts&#10;isa=system.cpu.isa&#10;itb=system.cpu.itb&#10;max_insts_all_threads=0&#10;max_insts_any_thread=0&#10;&#10;umThreads=1&#10;p_state_clk_gate_bins=20&#10;p_state_clk_gate_max=1000000000000&#10;p_state_clk_gate_min=1000&#10;power_gating_on_idle=false&#10;power_model=&#10;profile=0&#10;progress_interval=0&#10;pwr_gating_latency=300&#10;simpoint_start_insts=&#10;socket_id=0&#10;switched_out=false&#10;syscallRetryLatency=10000&#10;system=system&#10;tracer=system.cpu.tracer&#10;wait_for_remote_gdb=false&#10;workload=system.cpu.workload">
<path fill="#bbc6d9" stroke="#000000" d="M202,-24C202,-24 708,-24 708,-24 714,-24 720,-30 720,-36 720,-36 720,-334 720,-334 720,-340 714,-346 708,-346 708,-346 202,-346 202,-346 196,-346 190,-340 190,-334 190,-334 190,-36 190,-36 190,-30 196,-24 202,-24"/>
<text text-anchor="middle" x="455" y="-330.8" font-family="Arial" font-size="14.00" fill="#000000">cpu </text>
<text text-anchor="middle" x="455" y="-315.8" font-family="Arial" font-size="14.00" fill="#000000">: TimingSimpleCPU</text>
</a>
</g>
</g>
<g id="clust16" class="cluster">
<title>cluster_system_cpu_icache</title>
<g id="a_clust16"><a xlink:title="addr_ranges=0:18446744073709551615&#10;assoc=2&#10;clk_domain=system.cpu_clk_domain&#10;clusivity=mostly_incl&#10;compressor=Null&#10;data_latency=2&#10;default_p_state=UNDEFINED&#10;demand_mshr_reserve=1&#10;eventq_index=0&#10;is_read_only=true&#10;max_miss_count=0&#10;mshrs=4&#10;p_state_clk_gate_bins=20&#10;p_state_clk_gate_max=1000000000000&#10;p_state_clk_gate_min=1000&#10;power_model=&#10;prefetch_on_access=false&#10;prefetcher=Null&#10;&#13;eplacement_policy=system.cpu.icache.replacement_policy&#10;&#13;esponse_latency=2&#10;sequential_access=false&#10;size=32768&#10;system=system&#10;tag_latency=2&#10;tags=system.cpu.icache.tags&#10;tgts_per_mshr=20&#10;warmup_percentage=0&#10;write_allocator=Null&#10;write_buffers=8&#10;writeback_clean=true">
<path fill="#bab6ae" stroke="#000000" d="M210,-32C210,-32 380,-32 380,-32 386,-32 392,-38 392,-44 392,-44 392,-111 392,-111 392,-117 386,-123 380,-123 380,-123 210,-123 210,-123 204,-123 198,-117 198,-111 198,-111 198,-44 198,-44 198,-38 204,-32 210,-32"/>
<text text-anchor="middle" x="295" y="-107.8" font-family="Arial" font-size="14.00" fill="#000000">icache </text>
<text text-anchor="middle" x="295" y="-92.8" font-family="Arial" font-size="14.00" fill="#000000">: L1_ICache</text>
</a>
</g>
</g>
<g id="clust20" class="cluster">
<title>cluster_system_cpu_dtb</title>
<g id="a_clust20"><a xlink:title="eventq_index=0&#10;is_stage2=false&#10;size=64&#10;sys=system&#10;walker=system.cpu.dtb.walker">
<path fill="#bab6ae" stroke="#000000" d="M579,-155C579,-155 700,-155 700,-155 706,-155 712,-161 712,-167 712,-167 712,-288 712,-288 712,-294 706,-300 700,-300 700,-300 579,-300 579,-300 573,-300 567,-294 567,-288 567,-288 567,-167 567,-167 567,-161 573,-155 579,-155"/>
<text text-anchor="middle" x="639.5" y="-284.8" font-family="Arial" font-size="14.00" fill="#000000">dtb </text>
<text text-anchor="middle" x="639.5" y="-269.8" font-family="Arial" font-size="14.00" fill="#000000">: ArmDTB</text>
</a>
</g>
</g>
<g id="clust21" class="cluster">
<title>cluster_system_cpu_dtb_walker</title>
<g id="a_clust21"><a xlink:title="clk_domain=system.cpu_clk_domain&#10;default_p_state=UNDEFINED&#10;eventq_index=0&#10;is_stage2=false&#10;&#10;um_squash_per_cycle=2&#10;p_state_clk_gate_bins=20&#10;p_state_clk_gate_max=1000000000000&#10;p_state_clk_gate_min=1000&#10;power_model=&#10;sys=system">
<path fill="#9f9c95" stroke="#000000" d="M587,-163C587,-163 692,-163 692,-163 698,-163 704,-169 704,-175 704,-175 704,-242 704,-242 704,-248 698,-254 692,-254 692,-254 587,-254 587,-254 581,-254 575,-248 575,-242 575,-242 575,-175 575,-175 575,-169 581,-163 587,-163"/>
<text text-anchor="middle" x="639.5" y="-238.8" font-family="Arial" font-size="14.00" fill="#000000">walker </text>
<text text-anchor="middle" x="639.5" y="-223.8" font-family="Arial" font-size="14.00" fill="#000000">: ArmTableWalker</text>
</a>
</g>
</g>
<g id="clust26" class="cluster">
<title>cluster_system_cpu_itb</title>
<g id="a_clust26"><a xlink:title="eventq_index=0&#10;is_stage2=false&#10;size=64&#10;sys=system&#10;walker=system.cpu.itb.walker">
<path fill="#bab6ae" stroke="#000000" d="M426,-155C426,-155 547,-155 547,-155 553,-155 559,-161 559,-167 559,-167 559,-288 559,-288 559,-294 553,-300 547,-300 547,-300 426,-300 426,-300 420,-300 414,-294 414,-288 414,-288 414,-167 414,-167 414,-161 420,-155 426,-155"/>
<text text-anchor="middle" x="486.5" y="-284.8" font-family="Arial" font-size="14.00" fill="#000000">itb </text>
<text text-anchor="middle" x="486.5" y="-269.8" font-family="Arial" font-size="14.00" fill="#000000">: ArmITB</text>
</a>
</g>
</g>
<g id="clust27" class="cluster">
<title>cluster_system_cpu_itb_walker</title>
<g id="a_clust27"><a xlink:title="clk_domain=system.cpu_clk_domain&#10;default_p_state=UNDEFINED&#10;eventq_index=0&#10;is_stage2=false&#10;&#10;um_squash_per_cycle=2&#10;p_state_clk_gate_bins=20&#10;p_state_clk_gate_max=1000000000000&#10;p_state_clk_gate_min=1000&#10;power_model=&#10;sys=system">
<path fill="#9f9c95" stroke="#000000" d="M434,-163C434,-163 539,-163 539,-163 545,-163 551,-169 551,-175 551,-175 551,-242 551,-242 551,-248 545,-254 539,-254 539,-254 434,-254 434,-254 428,-254 422,-248 422,-242 422,-242 422,-175 422,-175 422,-169 428,-163 434,-163"/>
<text text-anchor="middle" x="486.5" y="-238.8" font-family="Arial" font-size="14.00" fill="#000000">walker </text>
<text text-anchor="middle" x="486.5" y="-223.8" font-family="Arial" font-size="14.00" fill="#000000">: ArmTableWalker</text>
</a>
</g>
</g>
<g id="clust32" class="cluster">
<title>cluster_system_cpu_dcache</title>
<g id="a_clust32"><a xlink:title="addr_ranges=0:18446744073709551615&#10;assoc=2&#10;clk_domain=system.cpu_clk_domain&#10;clusivity=mostly_incl&#10;compressor=Null&#10;data_latency=2&#10;default_p_state=UNDEFINED&#10;demand_mshr_reserve=1&#10;eventq_index=0&#10;is_read_only=false&#10;max_miss_count=0&#10;mshrs=4&#10;p_state_clk_gate_bins=20&#10;p_state_clk_gate_max=1000000000000&#10;p_state_clk_gate_min=1000&#10;power_model=&#10;prefetch_on_access=false&#10;prefetcher=Null&#10;&#13;eplacement_policy=system.cpu.dcache.replacement_policy&#10;&#13;esponse_latency=2&#10;sequential_access=false&#10;size=65536&#10;system=system&#10;tag_latency=2&#10;tags=system.cpu.dcache.tags&#10;tgts_per_mshr=20&#10;warmup_percentage=0&#10;write_allocator=Null&#10;write_buffers=8&#10;writeback_clean=false">
<path fill="#bab6ae" stroke="#000000" d="M471,-32C471,-32 641,-32 641,-32 647,-32 653,-38 653,-44 653,-44 653,-111 653,-111 653,-117 647,-123 641,-123 641,-123 471,-123 471,-123 465,-123 459,-117 459,-111 459,-111 459,-44 459,-44 459,-38 465,-32 471,-32"/>
<text text-anchor="middle" x="556" y="-107.8" font-family="Arial" font-size="14.00" fill="#000000">dcache </text>
<text text-anchor="middle" x="556" y="-92.8" font-family="Arial" font-size="14.00" fill="#000000">: L1_DCache</text>
</a>
</g>
</g>
<!-- system_system_port -->
<g id="node1" class="node">
<title>system_system_port</title>
<path fill="#b6b8bc" stroke="#000000" d="M450,-493.5C450,-493.5 522,-493.5 522,-493.5 528,-493.5 534,-499.5 534,-505.5 534,-505.5 534,-517.5 534,-517.5 534,-523.5 528,-529.5 522,-529.5 522,-529.5 450,-529.5 450,-529.5 444,-529.5 438,-523.5 438,-517.5 438,-517.5 438,-505.5 438,-505.5 438,-499.5 444,-493.5 450,-493.5"/>
<text text-anchor="middle" x="486" y="-507.8" font-family="Arial" font-size="14.00" fill="#000000">system_port</text>
</g>
<!-- system_membus_slave -->
<g id="node3" class="node">
<title>system_membus_slave</title>
<path fill="#586070" stroke="#000000" d="M471,-362.5C471,-362.5 501,-362.5 501,-362.5 507,-362.5 513,-368.5 513,-374.5 513,-374.5 513,-386.5 513,-386.5 513,-392.5 507,-398.5 501,-398.5 501,-398.5 471,-398.5 471,-398.5 465,-398.5 459,-392.5 459,-386.5 459,-386.5 459,-374.5 459,-374.5 459,-368.5 465,-362.5 471,-362.5"/>
<text text-anchor="middle" x="486" y="-376.8" font-family="Arial" font-size="14.00" fill="#000000">slave</text>
</g>
<!-- system_system_port&#45;&gt;system_membus_slave -->
<g id="edge1" class="edge">
<title>system_system_port&#45;&gt;system_membus_slave</title>
<path fill="none" stroke="#000000" d="M486,-493.285C486,-471.3856 486,-434.3861 486,-408.7663"/>
<polygon fill="#000000" stroke="#000000" points="489.5001,-408.5603 486,-398.5603 482.5001,-408.5603 489.5001,-408.5603"/>
</g>
<!-- system_membus_master -->
<g id="node2" class="node">
<title>system_membus_master</title>
<path fill="#586070" stroke="#000000" d="M391.5,-362.5C391.5,-362.5 428.5,-362.5 428.5,-362.5 434.5,-362.5 440.5,-368.5 440.5,-374.5 440.5,-374.5 440.5,-386.5 440.5,-386.5 440.5,-392.5 434.5,-398.5 428.5,-398.5 428.5,-398.5 391.5,-398.5 391.5,-398.5 385.5,-398.5 379.5,-392.5 379.5,-386.5 379.5,-386.5 379.5,-374.5 379.5,-374.5 379.5,-368.5 385.5,-362.5 391.5,-362.5"/>
<text text-anchor="middle" x="410" y="-376.8" font-family="Arial" font-size="14.00" fill="#000000">master</text>
</g>
<!-- system_mem_ctrls_port -->
<g id="node4" class="node">
<title>system_mem_ctrls_port</title>
<path fill="#4b4746" stroke="#000000" d="M118,-171.5C118,-171.5 148,-171.5 148,-171.5 154,-171.5 160,-177.5 160,-183.5 160,-183.5 160,-195.5 160,-195.5 160,-201.5 154,-207.5 148,-207.5 148,-207.5 118,-207.5 118,-207.5 112,-207.5 106,-201.5 106,-195.5 106,-195.5 106,-183.5 106,-183.5 106,-177.5 112,-171.5 118,-171.5"/>
<text text-anchor="middle" x="133" y="-185.8" font-family="Arial" font-size="14.00" fill="#000000">port</text>
</g>
<!-- system_membus_master&#45;&gt;system_mem_ctrls_port -->
<g id="edge2" class="edge">
<title>system_membus_master&#45;&gt;system_mem_ctrls_port</title>
<path fill="none" stroke="#000000" d="M379.2147,-377.8911C318.7629,-372.4983 189.0827,-359.4941 174,-346 137.7675,-313.5837 131.7879,-253.4558 131.7149,-217.9106"/>
<polygon fill="#000000" stroke="#000000" points="135.217,-217.7736 131.8549,-207.7264 128.2177,-217.6773 135.217,-217.7736"/>
</g>
<!-- system_cpu_icache_mem_side -->
<g id="node7" class="node">
<title>system_cpu_icache_mem_side</title>
<path fill="#94918b" stroke="#000000" d="M218,-40.5C218,-40.5 278,-40.5 278,-40.5 284,-40.5 290,-46.5 290,-52.5 290,-52.5 290,-64.5 290,-64.5 290,-70.5 284,-76.5 278,-76.5 278,-76.5 218,-76.5 218,-76.5 212,-76.5 206,-70.5 206,-64.5 206,-64.5 206,-52.5 206,-52.5 206,-46.5 212,-40.5 218,-40.5"/>
<text text-anchor="middle" x="248" y="-54.8" font-family="Arial" font-size="14.00" fill="#000000">mem_side</text>
</g>
<!-- system_membus_slave&#45;&gt;system_cpu_icache_mem_side -->
<g id="edge3" class="edge">
<title>system_membus_slave&#45;&gt;system_cpu_icache_mem_side</title>
<path fill="none" stroke="#000000" d="M457.2043,-357.1376C454.852,-355.9125 452.4392,-354.8421 450,-354 436.1299,-349.2116 196.2173,-356.5316 186,-346 171.2226,-330.7681 180.0223,-175.3629 186,-155 194.8623,-124.8109 216.4023,-95.1276 231.5951,-76.8255"/>
<polygon fill="#000000" stroke="#000000" points="455.5496,-360.2287 465.9036,-362.4747 459.2102,-354.262 455.5496,-360.2287"/>
</g>
<!-- system_cpu_dtb_walker_port -->
<g id="node9" class="node">
<title>system_cpu_dtb_walker_port</title>
<path fill="#7f7c77" stroke="#000000" d="M595,-171.5C595,-171.5 625,-171.5 625,-171.5 631,-171.5 637,-177.5 637,-183.5 637,-183.5 637,-195.5 637,-195.5 637,-201.5 631,-207.5 625,-207.5 625,-207.5 595,-207.5 595,-207.5 589,-207.5 583,-201.5 583,-195.5 583,-195.5 583,-183.5 583,-183.5 583,-177.5 589,-171.5 595,-171.5"/>
<text text-anchor="middle" x="610" y="-185.8" font-family="Arial" font-size="14.00" fill="#000000">port</text>
</g>
<!-- system_membus_slave&#45;&gt;system_cpu_dtb_walker_port -->
<g id="edge6" class="edge">
<title>system_membus_slave&#45;&gt;system_cpu_dtb_walker_port</title>
<path fill="none" stroke="#000000" d="M522.2616,-368.6508C534.0173,-363.3039 546.2642,-355.9091 555,-346 590.9949,-305.1706 603.8193,-239.3266 608.0666,-207.6581"/>
<polygon fill="#000000" stroke="#000000" points="520.8966,-365.4279 513.0156,-372.5089 523.5922,-371.8881 520.8966,-365.4279"/>
</g>
<!-- system_cpu_itb_walker_port -->
<g id="node10" class="node">
<title>system_cpu_itb_walker_port</title>
<path fill="#7f7c77" stroke="#000000" d="M471,-171.5C471,-171.5 501,-171.5 501,-171.5 507,-171.5 513,-177.5 513,-183.5 513,-183.5 513,-195.5 513,-195.5 513,-201.5 507,-207.5 501,-207.5 501,-207.5 471,-207.5 471,-207.5 465,-207.5 459,-201.5 459,-195.5 459,-195.5 459,-183.5 459,-183.5 459,-177.5 465,-171.5 471,-171.5"/>
<text text-anchor="middle" x="486" y="-185.8" font-family="Arial" font-size="14.00" fill="#000000">port</text>
</g>
<!-- system_membus_slave&#45;&gt;system_cpu_itb_walker_port -->
<g id="edge5" class="edge">
<title>system_membus_slave&#45;&gt;system_cpu_itb_walker_port</title>
<path fill="none" stroke="#000000" d="M486,-352.09C486,-312.3133 486,-241.1585 486,-207.7584"/>
<polygon fill="#000000" stroke="#000000" points="482.5001,-352.1861 486,-362.1861 489.5001,-352.1862 482.5001,-352.1861"/>
</g>
<!-- system_cpu_dcache_mem_side -->
<g id="node11" class="node">
<title>system_cpu_dcache_mem_side</title>
<path fill="#94918b" stroke="#000000" d="M573,-40.5C573,-40.5 633,-40.5 633,-40.5 639,-40.5 645,-46.5 645,-52.5 645,-52.5 645,-64.5 645,-64.5 645,-70.5 639,-76.5 633,-76.5 633,-76.5 573,-76.5 573,-76.5 567,-76.5 561,-70.5 561,-64.5 561,-64.5 561,-52.5 561,-52.5 561,-46.5 567,-40.5 573,-40.5"/>
<text text-anchor="middle" x="603" y="-54.8" font-family="Arial" font-size="14.00" fill="#000000">mem_side</text>
</g>
<!-- system_membus_slave&#45;&gt;system_cpu_dcache_mem_side -->
<g id="edge4" class="edge">
<title>system_membus_slave&#45;&gt;system_cpu_dcache_mem_side</title>
<path fill="none" stroke="#000000" d="M523.311,-377.3313C583.4091,-371.8462 696.1511,-359.8325 708,-346 763.2247,-281.5302 742.1314,-232.725 708,-155 692.9684,-120.7697 659.1383,-93.3466 633.9157,-76.6096"/>
<polygon fill="#000000" stroke="#000000" points="522.736,-373.8687 513.0884,-378.2477 523.361,-380.8408 522.736,-373.8687"/>
</g>
<!-- system_cpu_icache_port -->
<g id="node5" class="node">
<title>system_cpu_icache_port</title>
<path fill="#959ead" stroke="#000000" d="M210,-171.5C210,-171.5 278,-171.5 278,-171.5 284,-171.5 290,-177.5 290,-183.5 290,-183.5 290,-195.5 290,-195.5 290,-201.5 284,-207.5 278,-207.5 278,-207.5 210,-207.5 210,-207.5 204,-207.5 198,-201.5 198,-195.5 198,-195.5 198,-183.5 198,-183.5 198,-177.5 204,-171.5 210,-171.5"/>
<text text-anchor="middle" x="244" y="-185.8" font-family="Arial" font-size="14.00" fill="#000000">icache_port</text>
</g>
<!-- system_cpu_icache_cpu_side -->
<g id="node8" class="node">
<title>system_cpu_icache_cpu_side</title>
<path fill="#94918b" stroke="#000000" d="M320,-40.5C320,-40.5 372,-40.5 372,-40.5 378,-40.5 384,-46.5 384,-52.5 384,-52.5 384,-64.5 384,-64.5 384,-70.5 378,-76.5 372,-76.5 372,-76.5 320,-76.5 320,-76.5 314,-76.5 308,-70.5 308,-64.5 308,-64.5 308,-52.5 308,-52.5 308,-46.5 314,-40.5 320,-40.5"/>
<text text-anchor="middle" x="346" y="-54.8" font-family="Arial" font-size="14.00" fill="#000000">cpu_side</text>
</g>
<!-- system_cpu_icache_port&#45;&gt;system_cpu_icache_cpu_side -->
<g id="edge7" class="edge">
<title>system_cpu_icache_port&#45;&gt;system_cpu_icache_cpu_side</title>
<path fill="none" stroke="#000000" d="M259.4801,-171.3982C270.673,-158.1627 286.0417,-139.6837 299,-123 308.6432,-110.5845 318.9708,-96.5044 327.482,-84.674"/>
<polygon fill="#000000" stroke="#000000" points="330.3488,-86.6821 333.3226,-76.5132 324.6564,-82.6081 330.3488,-86.6821"/>
</g>
<!-- system_cpu_dcache_port -->
<g id="node6" class="node">
<title>system_cpu_dcache_port</title>
<path fill="#959ead" stroke="#000000" d="M320,-171.5C320,-171.5 394,-171.5 394,-171.5 400,-171.5 406,-177.5 406,-183.5 406,-183.5 406,-195.5 406,-195.5 406,-201.5 400,-207.5 394,-207.5 394,-207.5 320,-207.5 320,-207.5 314,-207.5 308,-201.5 308,-195.5 308,-195.5 308,-183.5 308,-183.5 308,-177.5 314,-171.5 320,-171.5"/>
<text text-anchor="middle" x="357" y="-185.8" font-family="Arial" font-size="14.00" fill="#000000">dcache_port</text>
</g>
<!-- system_cpu_dcache_cpu_side -->
<g id="node12" class="node">
<title>system_cpu_dcache_cpu_side</title>
<path fill="#94918b" stroke="#000000" d="M479,-40.5C479,-40.5 531,-40.5 531,-40.5 537,-40.5 543,-46.5 543,-52.5 543,-52.5 543,-64.5 543,-64.5 543,-70.5 537,-76.5 531,-76.5 531,-76.5 479,-76.5 479,-76.5 473,-76.5 467,-70.5 467,-64.5 467,-64.5 467,-52.5 467,-52.5 467,-46.5 473,-40.5 479,-40.5"/>
<text text-anchor="middle" x="505" y="-54.8" font-family="Arial" font-size="14.00" fill="#000000">cpu_side</text>
</g>
<!-- system_cpu_dcache_port&#45;&gt;system_cpu_dcache_cpu_side -->
<g id="edge8" class="edge">
<title>system_cpu_dcache_port&#45;&gt;system_cpu_dcache_cpu_side</title>
<path fill="none" stroke="#000000" d="M377.5788,-171.285C403.4246,-148.4079 447.8873,-109.0525 476.8625,-83.4055"/>
<polygon fill="#000000" stroke="#000000" points="479.4277,-85.8091 484.596,-76.5603 474.7882,-80.5674 479.4277,-85.8091"/>
</g>
</g>
</svg>
